<?xml version="1.0" encoding="UTF-8"?> <svg xmlns="http://www.w3.org/2000/svg" viewBox="0 0 400 51.14"><defs><style>.cls-1{fill:#084e86;}.cls-2{fill:#f7941d;}</style></defs><title>logo-400px</title><g id="Layer_2" data-name="Layer 2"><g id="Logo"><path class="cls-1" d="M30.3,12.78c7.49,0,11.53,2.8,11.53,8.41,0,6.3-3.81,10.07-13.19,10.07H0l6.11-7.91H29.38c2.25,0,3.26-.64,3.26-2.25s-1-2.21-3.26-2.21H12.64c-7.9,0-11.54-3.54-11.54-8.82C1.1,4.28,5,.51,14.3.51H41l-6.12,8H13.56c-2.2,0-3.26.56-3.26,2.12s1.06,2.16,3.26,2.16Z"></path><path class="cls-1" d="M81.51.51l-6.16,8h-11V31.26H54.84V8.5H40.41l6.16-8Z"></path><path class="cls-1" d="M124,15.86c0,11-7.54,15.91-22.48,15.91S79.07,26.85,79.07,15.86,86.57,0,101.55,0,124,4.87,124,15.86Zm-9.47,0c0-6.62-3.45-7.86-13-7.86s-13,1.24-13,7.86,3.45,7.91,13,7.91S114.56,22.48,114.56,15.86Z"></path><path class="cls-1" d="M172.49,31.26H159.75l-6.85-8.14H138.28v8.14h-9.51V15.54h26.75c2.95,0,5.24-1.33,5.24-3.45,0-2.39-2-3.59-5.24-3.59H128.77l6.2-8h19.77c7,0,15.82,2.2,15.82,11a9.63,9.63,0,0,1-8.05,9.75,38.29,38.29,0,0,1,4.32,4Z"></path><path class="cls-1" d="M211.61,23.35l-6.12,7.91h-29.6V.51h35.63l-6.16,8H185.45v3.68h24.37l-5.47,7h-18.9v4.18Z"></path><path class="cls-2" d="M239.19.51h18c9.33,0,13.2,3.77,13.2,9.56,0,5.28-3.64,8.82-11.54,8.82H244.25c-2.21,0-3.27.65-3.27,2.21v2.25h29.66l-6.12,7.91H231.79V21.19c0-5.61,4.05-8.41,11.54-8.41H258c2.2,0,3.26-.6,3.26-2.16S260.15,8.5,258,8.5H233.08Z"></path><path class="cls-2" d="M313.76,15.86c0,11-6.58,15.91-19.63,15.91S274.5,26.85,274.5,15.86,281.07,0,294.13,0,313.76,4.87,313.76,15.86Zm-9.38,0c0-6.62-2.71-7.86-10.25-7.86s-10.25,1.24-10.25,7.86,2.71,7.91,10.25,7.91S304.38,22.48,304.38,15.86Z"></path><path class="cls-2" d="M356.88,15.86c0,11-6.58,15.91-19.63,15.91s-19.63-4.92-19.63-15.91S324.19,0,337.25,0,356.88,4.87,356.88,15.86Zm-9.38,0c0-6.62-2.71-7.86-10.25-7.86S327,9.24,327,15.86s2.71,7.91,10.25,7.91S347.5,22.48,347.5,15.86Z"></path><path class="cls-2" d="M400,15.86c0,11-6.57,15.91-19.63,15.91s-19.63-4.92-19.63-15.91S367.31,0,380.37,0,400,4.87,400,15.86Zm-9.38,0c0-6.62-2.71-7.86-10.25-7.86s-10.25,1.24-10.25,7.86,2.71,7.91,10.25,7.91S390.62,22.48,390.62,15.86Z"></path><path class="cls-1" d="M228.06,48.27,227,38.4h1.2l.47,4.86c.13,1.37.3,2.94.31,3.89h0c.37-.85,1.27-2.49,2-3.88l2.6-4.87h1.28l-5.38,9.87Z"></path><path class="cls-1" d="M240.05,43.63c0,2.09-1.07,4.76-3.75,4.76-1.81,0-2.61-1.2-2.61-2.84,0-2,1.13-4.65,3.8-4.65A2.43,2.43,0,0,1,240.05,43.63Zm-5.16,1.88c0,1.12.42,1.92,1.53,1.92,1.74,0,2.45-2.23,2.45-3.76,0-1.14-.47-1.81-1.51-1.81C235.65,41.86,234.89,44,234.89,45.51Z"></path><path class="cls-1" d="M241.29,41h1.21l.47-2.1h1.11l-.46,2.1h1.49l-.21.94h-1.48l-1,4.61c-.13.6,0,.87.59.87a3.48,3.48,0,0,0,.78-.11l-.18.86a3.06,3.06,0,0,1-1,.17c-1,0-1.61-.4-1.33-1.74l1-4.66h-1.2Z"></path><path class="cls-1" d="M245.88,43.47c.24-1.15.4-2,.48-2.45h1.1a14.25,14.25,0,0,1-.25,1.45,2.86,2.86,0,0,1,2.61-1.56l-.27,1.2a2.86,2.86,0,0,0-2.8,2.64L246,48.27h-1.15Z"></path><path class="cls-1" d="M251,44.86a4,4,0,0,0-.08.81c0,1,.4,1.79,1.46,1.79a1.94,1.94,0,0,0,1.82-1.28h1.16a3.15,3.15,0,0,1-3.1,2.23c-1.78,0-2.5-1.18-2.5-2.76,0-2,1.1-4.75,3.69-4.75a2.27,2.27,0,0,1,2.42,2.51,6.11,6.11,0,0,1-.21,1.45Zm3.68-.84a3,3,0,0,0,.07-.62c0-.95-.43-1.58-1.43-1.58-1.18,0-1.87,1.1-2.14,2.2Z"></path><path class="cls-1" d="M261.06,43.47c.24-1.15.39-2,.48-2.45h1.1c0,.19-.13.91-.25,1.45a2.86,2.86,0,0,1,2.6-1.56l-.26,1.2a2.88,2.88,0,0,0-2.81,2.64l-.73,3.52H260Z"></path><path class="cls-1" d="M266.22,44.86a3.93,3.93,0,0,0-.09.81c0,1,.41,1.79,1.47,1.79a1.94,1.94,0,0,0,1.82-1.28h1.15a3.13,3.13,0,0,1-3.09,2.23c-1.79,0-2.5-1.18-2.5-2.76,0-2,1.09-4.75,3.69-4.75a2.26,2.26,0,0,1,2.41,2.51,6.07,6.07,0,0,1-.2,1.45ZM269.9,44a3,3,0,0,0,.06-.62c0-.95-.42-1.58-1.43-1.58-1.17,0-1.86,1.1-2.13,2.2Zm1.85-6.31-2.6,2.16h-1.21l2.33-2.16Z"></path><path class="cls-1" d="M273.14,47.25l-.81,3.89h-1.14l1.69-8c.21-1,.36-1.74.43-2.14h1.12c0,.25-.12.76-.2,1.13a2.53,2.53,0,0,1,2.23-1.25c1.37,0,2.17,1,2.17,2.68,0,1.89-1,4.81-3.63,4.81A1.8,1.8,0,0,1,273.14,47.25Zm4.28-3.51c0-1.26-.49-1.85-1.37-1.85-1.28,0-2.07,1.2-2.4,2.78s-.08,2.74,1.32,2.74C276.75,47.41,277.42,44.94,277.42,43.74Z"></path><path class="cls-1" d="M284.83,46.63c-.11.53-.27,1.3-.32,1.64h-1.1a9.45,9.45,0,0,1,.16-1,2.35,2.35,0,0,1-2.17,1.09,1.8,1.8,0,0,1-1.93-1.92c0-1.48,1.08-2.37,3.11-2.55a16.94,16.94,0,0,1,1.71-.07l.09-.4c.2-.88.06-1.68-1.24-1.68a1.52,1.52,0,0,0-1.6,1.2h-1.15a2.58,2.58,0,0,1,2.86-2.08c1.61,0,2.65.72,2.23,2.69Zm-.71-1.92a14,14,0,0,0-1.48,0c-1.12.11-2,.56-2,1.58a1,1,0,0,0,1.16,1.12c1.47,0,2-1.22,2.22-2.4Z"></path><path class="cls-1" d="M287.61,43.47c.24-1.15.39-2,.48-2.45h1.1a14.25,14.25,0,0,1-.25,1.45,2.86,2.86,0,0,1,2.6-1.56l-.26,1.2a2.88,2.88,0,0,0-2.81,2.64l-.73,3.52h-1.15Z"></path><path class="cls-1" d="M296.52,46.63c-.11.53-.27,1.3-.32,1.64h-1.1a9.45,9.45,0,0,1,.16-1,2.35,2.35,0,0,1-2.17,1.09,1.8,1.8,0,0,1-1.93-1.92c0-1.48,1.08-2.37,3.11-2.55a16.94,16.94,0,0,1,1.71-.07l.09-.4c.2-.88.06-1.68-1.24-1.68a1.52,1.52,0,0,0-1.6,1.2h-1.15a2.58,2.58,0,0,1,2.86-2.08c1.61,0,2.65.72,2.23,2.69Zm-.71-1.92a14,14,0,0,0-1.48,0c-1.12.11-2,.56-2,1.58a1,1,0,0,0,1.16,1.12c1.47,0,2-1.22,2.22-2.4Z"></path><path class="cls-1" d="M298.61,41h1.21l.47-2.1h1.11l-.46,2.1h1.49l-.21.94h-1.48l-1,4.61c-.13.6,0,.87.59.87a3.58,3.58,0,0,0,.78-.11l-.18.86a3.06,3.06,0,0,1-1,.17c-1,0-1.61-.4-1.33-1.74l1-4.66h-1.2Z"></path><path class="cls-1" d="M303.47,44.86a4,4,0,0,0-.08.81c0,1,.4,1.79,1.47,1.79a2,2,0,0,0,1.82-1.28h1.15a3.15,3.15,0,0,1-3.09,2.23c-1.79,0-2.5-1.18-2.5-2.76,0-2,1.09-4.75,3.68-4.75a2.27,2.27,0,0,1,2.42,2.51,6.62,6.62,0,0,1-.2,1.45Zm3.68-.84a2.45,2.45,0,0,0,.07-.62c0-.95-.43-1.58-1.43-1.58-1.17,0-1.86,1.1-2.14,2.2Z"></path><path class="cls-1" d="M314.77,46.22c-.19.91-.35,1.69-.41,2.05h-1.11c0-.21.11-.75.18-1.1a2.48,2.48,0,0,1-2.23,1.23c-1.14,0-2.09-.72-1.68-2.65l1-4.73h1.14l-1,4.56c-.21,1-.09,1.82,1,1.82s1.82-.65,2.2-2.43l.85-3.95h1.16Z"></path><path class="cls-1" d="M317.39,43.47c.24-1.15.4-2,.48-2.45H319a14.25,14.25,0,0,1-.25,1.45,2.86,2.86,0,0,1,2.61-1.56l-.27,1.2a2.86,2.86,0,0,0-2.8,2.64l-.74,3.52h-1.14Z"></path><path class="cls-1" d="M332.13,37.86l-1.8,8.52c-.16.7-.31,1.5-.37,1.89h-1.12A9.61,9.61,0,0,1,329,47.2a2.37,2.37,0,0,1-2.21,1.2c-1.43,0-2.17-1-2.17-2.74,0-2,1.16-4.76,3.63-4.76A1.73,1.73,0,0,1,330.11,42l.88-4.12Zm-6.28,7.66c0,1.3.54,1.92,1.39,1.92,1.34,0,2-1.19,2.38-2.95s-.09-2.61-1.31-2.61C326.62,41.88,325.85,44.1,325.85,45.52Z"></path><path class="cls-1" d="M333.43,44.86a3.93,3.93,0,0,0-.09.81c0,1,.41,1.79,1.47,1.79a1.94,1.94,0,0,0,1.82-1.28h1.15a3.13,3.13,0,0,1-3.09,2.23c-1.79,0-2.5-1.18-2.5-2.76,0-2,1.09-4.75,3.69-4.75a2.26,2.26,0,0,1,2.41,2.51,6.07,6.07,0,0,1-.2,1.45Zm3.68-.84a3,3,0,0,0,.06-.62c0-.95-.42-1.58-1.43-1.58-1.17,0-1.86,1.1-2.13,2.2Z"></path><path class="cls-1" d="M348.2,46.06A3.17,3.17,0,0,1,345,48.42c-1.63,0-2.43-1.06-2.43-2.73,0-2,1.12-4.79,3.7-4.79a2.16,2.16,0,0,1,2.37,2.51H347.5c0-.72-.18-1.55-1.36-1.55-1.62,0-2.39,2.27-2.39,3.78,0,1.21.51,1.83,1.43,1.83a2,2,0,0,0,1.87-1.41Z"></path><path class="cls-1" d="M355.79,43.63c0,2.09-1.07,4.76-3.75,4.76-1.81,0-2.61-1.2-2.61-2.84,0-2,1.13-4.65,3.8-4.65A2.43,2.43,0,0,1,355.79,43.63Zm-5.16,1.88c0,1.12.42,1.92,1.53,1.92,1.74,0,2.45-2.23,2.45-3.76,0-1.14-.47-1.81-1.51-1.81C351.39,41.86,350.63,44,350.63,45.51Z"></path><path class="cls-1" d="M357.62,43.29c.32-1.51.41-2,.47-2.27h1.12c0,.22-.11.69-.2,1.13a2.46,2.46,0,0,1,2.22-1.25c1.32,0,2.17.88,1.78,2.72l-1,4.65h-1.17l.95-4.48c.21-1,.08-1.87-1-1.87s-1.93,1-2.26,2.53l-.8,3.82h-1.15Z"></path><path class="cls-1" d="M364.21,48.27,365.55,42H364.4l.2-.94h1.15L366,40c.29-1.34.85-2.21,2.18-2.21a2.47,2.47,0,0,1,.83.12l-.21,1a2.47,2.47,0,0,0-.6-.07c-.68,0-.94.53-1.1,1.29l-.2,1h1.41l-.2.94h-1.41l-1.33,6.31Z"></path><path class="cls-1" d="M369.41,41h1.15L369,48.27h-1.14Zm.66-3.16h1.15l-.32,1.54h-1.15Z"></path><path class="cls-1" d="M376.35,46.63c-.11.53-.27,1.3-.32,1.64h-1.1a9.45,9.45,0,0,1,.16-1,2.35,2.35,0,0,1-2.17,1.09A1.8,1.8,0,0,1,371,46.48c0-1.48,1.08-2.37,3.11-2.55a16.94,16.94,0,0,1,1.71-.07l.09-.4c.19-.88.06-1.68-1.24-1.68a1.52,1.52,0,0,0-1.6,1.2h-1.15a2.58,2.58,0,0,1,2.85-2.08c1.62,0,2.66.72,2.24,2.69Zm-.71-1.92a14,14,0,0,0-1.48,0c-1.13.11-2,.56-2,1.58a1,1,0,0,0,1.16,1.12c1.47,0,2-1.22,2.22-2.4Z"></path><path class="cls-1" d="M379.16,43.29c.32-1.51.41-2,.47-2.27h1.12c0,.22-.12.69-.21,1.13a2.48,2.48,0,0,1,2.22-1.25c1.33,0,2.18.88,1.79,2.72l-1,4.65H382.4l.94-4.48c.21-1,.08-1.87-1-1.87s-1.93,1-2.25,2.53l-.81,3.82h-1.14Z"></path><path class="cls-1" d="M391.42,46.06a3.17,3.17,0,0,1-3.21,2.36c-1.64,0-2.44-1.06-2.44-2.73,0-2,1.12-4.79,3.7-4.79a2.17,2.17,0,0,1,2.38,2.51h-1.14c0-.72-.18-1.55-1.35-1.55-1.63,0-2.4,2.27-2.4,3.78,0,1.21.51,1.83,1.44,1.83a2,2,0,0,0,1.86-1.41Z"></path><path class="cls-1" d="M393.88,44.86a3.93,3.93,0,0,0-.09.81c0,1,.4,1.79,1.47,1.79a1.94,1.94,0,0,0,1.82-1.28h1.15a3.14,3.14,0,0,1-3.09,2.23c-1.79,0-2.5-1.18-2.5-2.76,0-2,1.09-4.75,3.69-4.75a2.26,2.26,0,0,1,2.41,2.51,6.07,6.07,0,0,1-.2,1.45Zm3.68-.84a3,3,0,0,0,.06-.62c0-.95-.42-1.58-1.43-1.58-1.17,0-1.86,1.1-2.13,2.2Z"></path></g></g></svg> 